<svg width="132" height="318" viewBox="0 0 132 318" fill="none" xmlns="http://www.w3.org/2000/svg">
<path d="M191.82 256.489L205.241 252.769L201.523 239.354L188.102 243.075L184.383 229.66L197.805 225.94L194.086 212.525L180.665 216.245L167.244 219.965L163.526 206.551L176.947 202.831L173.228 189.416L159.807 193.136L163.526 206.551L150.104 210.271L136.683 213.991L132.965 200.576L119.544 204.297L106.123 208.017L109.841 221.431L113.559 234.846L100.138 238.566L96.4197 225.152L90.4318 226.811L84.168 136.431C84.168 136.431 93.0596 123.188 116.95 122.344C152.734 121.093 170.297 140.337 199.911 146.907C218.522 151.082 222.651 142.715 222.651 142.715L234.727 220.373C234.727 220.373 265.875 213.628 283.661 234.477C294.215 246.886 278.351 259.839 261.936 264.389C244.798 269.14 224.529 266.202 192.077 257.418L191.82 256.489Z" fill="white" stroke="#FF6B00" stroke-width="0.496227" stroke-miterlimit="10"/>
<path d="M129.156 238.967C123.932 238.971 119.35 239.685 115.192 240.727L113.561 234.845L126.982 231.125L129.156 238.967Z" fill="white" stroke="#FF6B00" stroke-width="0.496227" stroke-miterlimit="10"/>
<path d="M93.5349 254.841L92.5025 255.127L91.4685 240.969L100.141 238.565L102.314 246.407C97.8912 249.3 94.907 252.572 93.5349 254.841Z" fill="white" stroke="#FF6B00" stroke-width="0.496227" stroke-miterlimit="10"/>
<path d="M123.262 217.712L136.684 213.992L140.402 227.406L126.981 231.126L123.262 217.712Z" fill="white" stroke="#FF6B00" stroke-width="0.496227" stroke-miterlimit="10"/>
<path d="M140.731 124.306C140.731 124.306 127.747 117.571 111.309 123.239C94.8698 128.906 55.1969 165.46 55.1969 165.46L53.9503 236.365C53.9503 236.365 102.371 195.276 118.321 191.855C133.52 188.531 146.475 195.162 146.475 195.162L140.731 124.306Z" fill="#262626"/>
<path d="M128.07 106.704C128.07 106.704 115.812 102.99 98.6471 105.637C83.1911 108.032 42.5354 147.858 42.5354 147.858L41.2888 218.764C41.2888 218.764 90.1961 179.428 105.66 174.253C121.123 169.078 133.529 174.528 133.529 174.528L128.07 106.704Z" fill="white" stroke="#FF6B00" stroke-width="0.496227" stroke-miterlimit="10"/>
<path d="M87.3184 110.888L87.5492 142.604L56.6522 167.502L56.8294 134.451L79.3899 115.975L87.3184 110.888Z" fill="#262626"/>
<path d="M122.853 246.713L157.542 237.098L163.634 259.077L128.946 268.692L122.853 246.713Z" fill="white" stroke="#FF6B00" stroke-width="0.496227" stroke-miterlimit="10"/>
<path d="M154.818 250.249L151.012 253.734L150.768 252.853L153.69 250.295L153.674 250.24L149.853 249.551L149.609 248.67L154.665 249.699L154.818 250.249ZM144.817 247.746L145.56 247.54L150.169 255.346L149.426 255.552L144.817 247.746ZM141.434 256.626L137.497 254.398L139.725 250.461L140.401 250.844L138.823 253.623L144.472 252.057L144.682 252.814L139.033 254.38L141.818 255.957L141.434 256.626ZM131.304 256.767L131.151 256.216L134.957 252.731L135.201 253.612L132.28 256.17L132.295 256.225L136.117 256.915L136.361 257.795L131.304 256.767Z" fill="black"/>
<path d="M79.3418 108.989L79.4694 140.733L48.5724 165.632L48.7594 135.023L79.3418 108.989Z" fill="white" stroke="#262626" stroke-width="0.496227" stroke-miterlimit="10"/>
<path d="M123.699 82.9146L120.892 53.1353L151.817 28.3401L154.281 56.8811L123.699 82.9146Z" fill="white" stroke="#262626" stroke-width="0.496227" stroke-miterlimit="10"/>
<path d="M137.591 60.8421C135.652 61.3795 133.645 60.2443 133.108 58.3067C132.571 56.369 133.707 54.3626 135.646 53.8253C137.585 53.2879 139.592 54.4231 140.129 56.3607C140.666 58.2984 139.53 60.3048 137.591 60.8421Z" fill="white" stroke="#262626" stroke-width="0.496227" stroke-miterlimit="10"/>
<path d="M64.7207 146.489L64.7188 157.712L53.8173 166.512L53.9336 155.702L64.7207 146.489Z" fill="white" stroke="#262626" stroke-width="0.496227" stroke-miterlimit="10"/>
<path d="M104.26 163.197L104.351 181.173L87.444 191.971L87.5246 174.614L104.26 163.197Z" fill="white" stroke="#262626" stroke-width="0.496227" stroke-miterlimit="10"/>
</svg>
